<svg width="24" height="24" viewBox="0 0 24 24" fill="none" xmlns="http://www.w3.org/2000/svg">
<path fill-rule="evenodd" clip-rule="evenodd" d="M12.455 3.43549C12.7309 3.3174 13.0507 3.37524 13.2679 3.5825L21.5179 11.4575C21.6661 11.599 21.75 11.7951 21.75 12C21.75 12.205 21.6661 12.401 21.5179 12.5425L13.2679 20.4175C13.0507 20.6248 12.7309 20.6826 12.455 20.5645C12.179 20.4465 12 20.1752 12 19.875V16.1359C9.75683 16.203 8.22535 16.5781 7.02782 17.1972C5.70137 17.8829 4.70826 18.9062 3.59109 20.3367C3.39404 20.589 3.05858 20.6884 2.75588 20.5842C2.45319 20.48 2.25 20.1951 2.25 19.875C2.25 17.0218 2.71894 14.0279 4.29592 11.7298C5.80946 9.52422 8.27062 8.06338 12 7.89195V4.12502C12 3.82484 12.179 3.55358 12.455 3.43549ZM13.5 5.87776V8.62502C13.5 9.03923 13.1642 9.37502 12.75 9.37502C9.00742 9.37502 6.82115 10.701 5.53272 12.5785C4.55879 13.9978 4.05316 15.7964 3.8538 17.7369C4.58514 16.9932 5.3809 16.36 6.33894 15.8647C7.95372 15.0299 9.95317 14.625 12.75 14.625C13.1642 14.625 13.5 14.9608 13.5 15.375V18.1223L19.9138 12L13.5 5.87776Z" fill="#C3D7FF"/>
</svg>
