<svg width="44" height="44" viewBox="0 0 44 44" fill="none" xmlns="http://www.w3.org/2000/svg">
<circle cx="21.8047" cy="22.2729" r="21.5" fill="#F2F4F8"/>
<path d="M13.4228 23.6552C13.2276 23.8505 13.2276 24.1671 13.4228 24.3623L16.6048 27.5443C16.8001 27.7396 17.1166 27.7396 17.3119 27.5443C17.5072 27.3491 17.5072 27.0325 17.3119 26.8372L14.4835 24.0088L17.3119 21.1804C17.5072 20.9851 17.5072 20.6685 17.3119 20.4733C17.1166 20.278 16.8001 20.278 16.6048 20.4733L13.4228 23.6552ZM26.7764 24.0088V24.5088H27.2764V24.0088H26.7764ZM27.2764 16.0088C27.2764 15.7326 27.0525 15.5088 26.7764 15.5088C26.5002 15.5088 26.2764 15.7326 26.2764 16.0088H26.7764H27.2764ZM13.7764 24.0088C13.7764 24.5088 13.7764 24.5088 13.7765 24.5088C13.7765 24.5088 13.7766 24.5088 13.7767 24.5088C13.7768 24.5088 13.777 24.5088 13.7772 24.5088C13.7774 24.5088 13.7776 24.5088 13.7778 24.5088C13.778 24.5088 13.7783 24.5088 13.7786 24.5088C13.7789 24.5088 13.7792 24.5088 13.7796 24.5088C13.7799 24.5088 13.7803 24.5088 13.7807 24.5088C13.7812 24.5088 13.7816 24.5088 13.7821 24.5088C13.7826 24.5088 13.7831 24.5088 13.7836 24.5088C13.7841 24.5088 13.7847 24.5088 13.7853 24.5088C13.7859 24.5088 13.7865 24.5088 13.7871 24.5088C13.7878 24.5088 13.7885 24.5088 13.7892 24.5088C13.7899 24.5088 13.7906 24.5088 13.7914 24.5088C13.7921 24.5088 13.7929 24.5088 13.7938 24.5088C13.7946 24.5088 13.7954 24.5088 13.7963 24.5088C13.7972 24.5088 13.7981 24.5088 13.799 24.5088C13.8 24.5088 13.801 24.5088 13.802 24.5088C13.8029 24.5088 13.804 24.5088 13.805 24.5088C13.8061 24.5088 13.8072 24.5088 13.8083 24.5088C13.8094 24.5088 13.8105 24.5088 13.8117 24.5088C13.8128 24.5088 13.814 24.5088 13.8153 24.5088C13.8165 24.5088 13.8177 24.5088 13.819 24.5088C13.8203 24.5088 13.8216 24.5088 13.8229 24.5088C13.8243 24.5088 13.8256 24.5088 13.827 24.5088C13.8284 24.5088 13.8299 24.5088 13.8313 24.5088C13.8327 24.5088 13.8342 24.5088 13.8357 24.5088C13.8372 24.5088 13.8388 24.5088 13.8403 24.5088C13.8419 24.5088 13.8435 24.5088 13.8451 24.5088C13.8467 24.5088 13.8483 24.5088 13.85 24.5088C13.8517 24.5088 13.8534 24.5088 13.8551 24.5088C13.8568 24.5088 13.8586 24.5088 13.8604 24.5088C13.8622 24.5088 13.864 24.5088 13.8658 24.5088C13.8676 24.5088 13.8695 24.5088 13.8714 24.5088C13.8733 24.5088 13.8752 24.5088 13.8772 24.5088C13.8791 24.5088 13.8811 24.5088 13.8831 24.5088C13.8851 24.5088 13.8871 24.5088 13.8892 24.5088C13.8912 24.5088 13.8933 24.5088 13.8954 24.5088C13.8975 24.5088 13.8996 24.5088 13.9018 24.5088C13.904 24.5088 13.9062 24.5088 13.9084 24.5088C13.9106 24.5088 13.9128 24.5088 13.9151 24.5088C13.9174 24.5088 13.9197 24.5088 13.922 24.5088C13.9243 24.5088 13.9267 24.5088 13.9291 24.5088C13.9314 24.5088 13.9338 24.5088 13.9363 24.5088C13.9387 24.5088 13.9412 24.5088 13.9436 24.5088C13.9461 24.5088 13.9486 24.5088 13.9512 24.5088C13.9537 24.5088 13.9563 24.5088 13.9589 24.5088C13.9614 24.5088 13.9641 24.5088 13.9667 24.5088C13.9693 24.5088 13.972 24.5088 13.9747 24.5088C13.9774 24.5088 13.9801 24.5088 13.9829 24.5088C13.9856 24.5088 13.9884 24.5088 13.9912 24.5088C13.994 24.5088 13.9968 24.5088 13.9997 24.5088C14.0025 24.5088 14.0054 24.5088 14.0083 24.5088C14.0112 24.5088 14.0141 24.5088 14.0171 24.5088C14.02 24.5088 14.023 24.5088 14.026 24.5088C14.029 24.5088 14.032 24.5088 14.0351 24.5088C14.0382 24.5088 14.0412 24.5088 14.0444 24.5088C14.0475 24.5088 14.0506 24.5088 14.0538 24.5088C14.0569 24.5088 14.0601 24.5088 14.0633 24.5088C14.0665 24.5088 14.0698 24.5088 14.073 24.5088C14.0763 24.5088 14.0796 24.5088 14.0829 24.5088C14.0862 24.5088 14.0895 24.5088 14.0929 24.5088C14.0962 24.5088 14.0996 24.5088 14.103 24.5088C14.1065 24.5088 14.1099 24.5088 14.1134 24.5088C14.1168 24.5088 14.1203 24.5088 14.1238 24.5088C14.1273 24.5088 14.1309 24.5088 14.1344 24.5088C14.138 24.5088 14.1416 24.5088 14.1452 24.5088C14.1488 24.5088 14.1524 24.5088 14.1561 24.5088C14.1597 24.5088 14.1634 24.5088 14.1671 24.5088C14.1709 24.5088 14.1746 24.5088 14.1783 24.5088C14.1821 24.5088 14.1859 24.5088 14.1897 24.5088C14.1935 24.5088 14.1973 24.5088 14.2012 24.5088C14.2051 24.5088 14.2089 24.5088 14.2128 24.5088C14.2167 24.5088 14.2207 24.5088 14.2246 24.5088C14.2286 24.5088 14.2326 24.5088 14.2366 24.5088C14.2406 24.5088 14.2446 24.5088 14.2486 24.5088C14.2527 24.5088 14.2568 24.5088 14.2609 24.5088C14.265 24.5088 14.2691 24.5088 14.2732 24.5088C14.2774 24.5088 14.2816 24.5088 14.2857 24.5088C14.2899 24.5088 14.2942 24.5088 14.2984 24.5088C14.3026 24.5088 14.3069 24.5088 14.3112 24.5088C14.3155 24.5088 14.3198 24.5088 14.3241 24.5088C14.3285 24.5088 14.3328 24.5088 14.3372 24.5088C14.3416 24.5088 14.346 24.5088 14.3504 24.5088C14.3549 24.5088 14.3593 24.5088 14.3638 24.5088C14.3683 24.5088 14.3728 24.5088 14.3773 24.5088C14.3818 24.5088 14.3864 24.5088 14.3909 24.5088C14.3955 24.5088 14.4001 24.5088 14.4047 24.5088C14.4093 24.5088 14.414 24.5088 14.4186 24.5088C14.4233 24.5088 14.428 24.5088 14.4327 24.5088C14.4374 24.5088 14.4421 24.5088 14.4469 24.5088C14.4516 24.5088 14.4564 24.5088 14.4612 24.5088C14.466 24.5088 14.4708 24.5088 14.4757 24.5088C14.4805 24.5088 14.4854 24.5088 14.4903 24.5088C14.4952 24.5088 14.5001 24.5088 14.505 24.5088C14.51 24.5088 14.5149 24.5088 14.5199 24.5088C14.5249 24.5088 14.5299 24.5088 14.5349 24.5088C14.5399 24.5088 14.545 24.5088 14.5501 24.5088C14.5551 24.5088 14.5602 24.5088 14.5653 24.5088C14.5705 24.5088 14.5756 24.5088 14.5808 24.5088C14.5859 24.5088 14.5911 24.5088 14.5963 24.5088C14.6015 24.5088 14.6067 24.5088 14.612 24.5088C14.6172 24.5088 14.6225 24.5088 14.6278 24.5088C14.6331 24.5088 14.6384 24.5088 14.6437 24.5088C14.6491 24.5088 14.6544 24.5088 14.6598 24.5088C14.6652 24.5088 14.6706 24.5088 14.676 24.5088C14.6814 24.5088 14.6869 24.5088 14.6924 24.5088C14.6978 24.5088 14.7033 24.5088 14.7088 24.5088C14.7143 24.5088 14.7199 24.5088 14.7254 24.5088C14.731 24.5088 14.7365 24.5088 14.7421 24.5088C14.7477 24.5088 14.7533 24.5088 14.759 24.5088C14.7646 24.5088 14.7703 24.5088 14.776 24.5088C14.7816 24.5088 14.7873 24.5088 14.7931 24.5088C14.7988 24.5088 14.8045 24.5088 14.8103 24.5088C14.8161 24.5088 14.8218 24.5088 14.8277 24.5088C14.8335 24.5088 14.8393 24.5088 14.8451 24.5088C14.851 24.5088 14.8569 24.5088 14.8627 24.5088C14.8686 24.5088 14.8745 24.5088 14.8805 24.5088C14.8864 24.5088 14.8924 24.5088 14.8983 24.5088C14.9043 24.5088 14.9103 24.5088 14.9163 24.5088C14.9223 24.5088 14.9284 24.5088 14.9344 24.5088C14.9405 24.5088 14.9466 24.5088 14.9527 24.5088C14.9588 24.5088 14.9649 24.5088 14.971 24.5088C14.9772 24.5088 14.9833 24.5088 14.9895 24.5088C14.9957 24.5088 15.0019 24.5088 15.0081 24.5088C15.0143 24.5088 15.0205 24.5088 15.0268 24.5088C15.0331 24.5088 15.0393 24.5088 15.0456 24.5088C15.0519 24.5088 15.0583 24.5088 15.0646 24.5088C15.0709 24.5088 15.0773 24.5088 15.0837 24.5088C15.0901 24.5088 15.0965 24.5088 15.1029 24.5088C15.1093 24.5088 15.1157 24.5088 15.1222 24.5088C15.1287 24.5088 15.1351 24.5088 15.1416 24.5088C15.1481 24.5088 15.1546 24.5088 15.1612 24.5088C15.1677 24.5088 15.1743 24.5088 15.1809 24.5088C15.1874 24.5088 15.194 24.5088 15.2006 24.5088C15.2073 24.5088 15.2139 24.5088 15.2205 24.5088C15.2272 24.5088 15.2339 24.5088 15.2406 24.5088C15.2473 24.5088 15.254 24.5088 15.2607 24.5088C15.2674 24.5088 15.2742 24.5088 15.2809 24.5088C15.2877 24.5088 15.2945 24.5088 15.3013 24.5088C15.3081 24.5088 15.3149 24.5088 15.3218 24.5088C15.3286 24.5088 15.3355 24.5088 15.3424 24.5088C15.3493 24.5088 15.3562 24.5088 15.3631 24.5088C15.37 24.5088 15.3769 24.5088 15.3839 24.5088C15.3909 24.5088 15.3978 24.5088 15.4048 24.5088C15.4118 24.5088 15.4188 24.5088 15.4259 24.5088C15.4329 24.5088 15.44 24.5088 15.447 24.5088C15.4541 24.5088 15.4612 24.5088 15.4683 24.5088C15.4754 24.5088 15.4825 24.5088 15.4897 24.5088C15.4968 24.5088 15.504 24.5088 15.5112 24.5088C15.5183 24.5088 15.5255 24.5088 15.5328 24.5088C15.54 24.5088 15.5472 24.5088 15.5545 24.5088C15.5617 24.5088 15.569 24.5088 15.5763 24.5088C15.5836 24.5088 15.5909 24.5088 15.5982 24.5088C15.6055 24.5088 15.6129 24.5088 15.6202 24.5088C15.6276 24.5088 15.635 24.5088 15.6424 24.5088C15.6497 24.5088 15.6572 24.5088 15.6646 24.5088C15.672 24.5088 15.6795 24.5088 15.6869 24.5088C15.6944 24.5088 15.7019 24.5088 15.7094 24.5088C15.7169 24.5088 15.7244 24.5088 15.7319 24.5088C15.7395 24.5088 15.747 24.5088 15.7546 24.5088C15.7622 24.5088 15.7698 24.5088 15.7774 24.5088C15.785 24.5088 15.7926 24.5088 15.8002 24.5088C15.8079 24.5088 15.8155 24.5088 15.8232 24.5088C15.8309 24.5088 15.8386 24.5088 15.8463 24.5088C15.854 24.5088 15.8617 24.5088 15.8695 24.5088C15.8772 24.5088 15.885 24.5088 15.8928 24.5088C15.9005 24.5088 15.9083 24.5088 15.9161 24.5088C15.924 24.5088 15.9318 24.5088 15.9396 24.5088C15.9475 24.5088 15.9553 24.5088 15.9632 24.5088C15.9711 24.5088 15.979 24.5088 15.9869 24.5088C15.9948 24.5088 16.0027 24.5088 16.0107 24.5088C16.0186 24.5088 16.0266 24.5088 16.0346 24.5088C16.0425 24.5088 16.0505 24.5088 16.0585 24.5088C16.0665 24.5088 16.0746 24.5088 16.0826 24.5088C16.0907 24.5088 16.0987 24.5088 16.1068 24.5088C16.1149 24.5088 16.123 24.5088 16.1311 24.5088C16.1392 24.5088 16.1473 24.5088 16.1554 24.5088C16.1636 24.5088 16.1717 24.5088 16.1799 24.5088C16.1881 24.5088 16.1963 24.5088 16.2045 24.5088C16.2127 24.5088 16.2209 24.5088 16.2291 24.5088C16.2374 24.5088 16.2456 24.5088 16.2539 24.5088C16.2621 24.5088 16.2704 24.5088 16.2787 24.5088C16.287 24.5088 16.2953 24.5088 16.3037 24.5088C16.312 24.5088 16.3203 24.5088 16.3287 24.5088C16.3371 24.5088 16.3454 24.5088 16.3538 24.5088C16.3622 24.5088 16.3706 24.5088 16.379 24.5088C16.3875 24.5088 16.3959 24.5088 16.4043 24.5088C16.4128 24.5088 16.4213 24.5088 16.4297 24.5088C16.4382 24.5088 16.4467 24.5088 16.4552 24.5088C16.4638 24.5088 16.4723 24.5088 16.4808 24.5088C16.4894 24.5088 16.4979 24.5088 16.5065 24.5088C16.5151 24.5088 16.5237 24.5088 16.5323 24.5088C16.5409 24.5088 16.5495 24.5088 16.5581 24.5088C16.5667 24.5088 16.5754 24.5088 16.5841 24.5088C16.5927 24.5088 16.6014 24.5088 16.6101 24.5088C16.6188 24.5088 16.6275 24.5088 16.6362 24.5088C16.6449 24.5088 16.6537 24.5088 16.6624 24.5088C16.6712 24.5088 16.6799 24.5088 16.6887 24.5088C16.6975 24.5088 16.7063 24.5088 16.7151 24.5088C16.7239 24.5088 16.7327 24.5088 16.7415 24.5088C16.7504 24.5088 16.7592 24.5088 16.7681 24.5088C16.7769 24.5088 16.7858 24.5088 16.7947 24.5088C16.8036 24.5088 16.8125 24.5088 16.8214 24.5088C16.8304 24.5088 16.8393 24.5088 16.8482 24.5088C16.8572 24.5088 16.8661 24.5088 16.8751 24.5088C16.8841 24.5088 16.8931 24.5088 16.9021 24.5088C16.9111 24.5088 16.9201 24.5088 16.9291 24.5088C16.9382 24.5088 16.9472 24.5088 16.9563 24.5088C16.9653 24.5088 16.9744 24.5088 16.9835 24.5088C16.9926 24.5088 17.0017 24.5088 17.0108 24.5088C17.0199 24.5088 17.029 24.5088 17.0382 24.5088C17.0473 24.5088 17.0564 24.5088 17.0656 24.5088C17.0748 24.5088 17.084 24.5088 17.0932 24.5088C17.1023 24.5088 17.1115 24.5088 17.1208 24.5088C17.13 24.5088 17.1392 24.5088 17.1485 24.5088C17.1577 24.5088 17.167 24.5088 17.1762 24.5088C17.1855 24.5088 17.1948 24.5088 17.2041 24.5088C17.2134 24.5088 17.2227 24.5088 17.232 24.5088C17.2413 24.5088 17.2507 24.5088 17.26 24.5088C17.2694 24.5088 17.2787 24.5088 17.2881 24.5088C17.2975 24.5088 17.3068 24.5088 17.3162 24.5088C17.3256 24.5088 17.3351 24.5088 17.3445 24.5088C17.3539 24.5088 17.3633 24.5088 17.3728 24.5088C17.3822 24.5088 17.3917 24.5088 17.4012 24.5088C17.4106 24.5088 17.4201 24.5088 17.4296 24.5088C17.4391 24.5088 17.4486 24.5088 17.4582 24.5088C17.4677 24.5088 17.4772 24.5088 17.4868 24.5088C17.4963 24.5088 17.5059 24.5088 17.5154 24.5088C17.525 24.5088 17.5346 24.5088 17.5442 24.5088C17.5538 24.5088 17.5634 24.5088 17.573 24.5088C17.5826 24.5088 17.5922 24.5088 17.6019 24.5088C17.6115 24.5088 17.6212 24.5088 17.6308 24.5088C17.6405 24.5088 17.6502 24.5088 17.6599 24.5088C17.6696 24.5088 17.6793 24.5088 17.689 24.5088C17.6987 24.5088 17.7084 24.5088 17.7181 24.5088C17.7279 24.5088 17.7376 24.5088 17.7474 24.5088C17.7571 24.5088 17.7669 24.5088 17.7767 24.5088C17.7865 24.5088 17.7963 24.5088 17.8061 24.5088C17.8159 24.5088 17.8257 24.5088 17.8355 24.5088C17.8453 24.5088 17.8552 24.5088 17.865 24.5088C17.8749 24.5088 17.8847 24.5088 17.8946 24.5088C17.9045 24.5088 17.9143 24.5088 17.9242 24.5088C17.9341 24.5088 17.944 24.5088 17.9539 24.5088C17.9638 24.5088 17.9738 24.5088 17.9837 24.5088C17.9936 24.5088 18.0036 24.5088 18.0135 24.5088C18.0235 24.5088 18.0335 24.5088 18.0434 24.5088C18.0534 24.5088 18.0634 24.5088 18.0734 24.5088C18.0834 24.5088 18.0934 24.5088 18.1034 24.5088C18.1134 24.5088 18.1235 24.5088 18.1335 24.5088C18.1436 24.5088 18.1536 24.5088 18.1637 24.5088C18.1737 24.5088 18.1838 24.5088 18.1939 24.5088C18.204 24.5088 18.2141 24.5088 18.2242 24.5088C18.2343 24.5088 18.2444 24.5088 18.2545 24.5088C18.2646 24.5088 18.2747 24.5088 18.2849 24.5088C18.295 24.5088 18.3052 24.5088 18.3153 24.5088C18.3255 24.5088 18.3357 24.5088 18.3459 24.5088C18.356 24.5088 18.3662 24.5088 18.3764 24.5088C18.3866 24.5088 18.3968 24.5088 18.4071 24.5088C18.4173 24.5088 18.4275 24.5088 18.4378 24.5088C18.448 24.5088 18.4582 24.5088 18.4685 24.5088C18.4788 24.5088 18.489 24.5088 18.4993 24.5088C18.5096 24.5088 18.5199 24.5088 18.5302 24.5088C18.5405 24.5088 18.5508 24.5088 18.5611 24.5088C18.5714 24.5088 18.5817 24.5088 18.5921 24.5088C18.6024 24.5088 18.6127 24.5088 18.6231 24.5088C18.6334 24.5088 18.6438 24.5088 18.6542 24.5088C18.6645 24.5088 18.6749 24.5088 18.6853 24.5088C18.6957 24.5088 18.7061 24.5088 18.7165 24.5088C18.7269 24.5088 18.7373 24.5088 18.7478 24.5088C18.7582 24.5088 18.7686 24.5088 18.779 24.5088C18.7895 24.5088 18.7999 24.5088 18.8104 24.5088C18.8209 24.5088 18.8313 24.5088 18.8418 24.5088C18.8523 24.5088 18.8628 24.5088 18.8733 24.5088C18.8837 24.5088 18.8942 24.5088 18.9048 24.5088C18.9153 24.5088 18.9258 24.5088 18.9363 24.5088C18.9468 24.5088 18.9574 24.5088 18.9679 24.5088C18.9785 24.5088 18.989 24.5088 18.9996 24.5088C19.0101 24.5088 19.0207 24.5088 19.0313 24.5088C19.0418 24.5088 19.0524 24.5088 19.063 24.5088C19.0736 24.5088 19.0842 24.5088 19.0948 24.5088C19.1054 24.5088 19.116 24.5088 19.1267 24.5088C19.1373 24.5088 19.1479 24.5088 19.1586 24.5088C19.1692 24.5088 19.1798 24.5088 19.1905 24.5088C19.2012 24.5088 19.2118 24.5088 19.2225 24.5088C19.2332 24.5088 19.2438 24.5088 19.2545 24.5088C19.2652 24.5088 19.2759 24.5088 19.2866 24.5088C19.2973 24.5088 19.308 24.5088 19.3187 24.5088C19.3294 24.5088 19.3402 24.5088 19.3509 24.5088C19.3616 24.5088 19.3724 24.5088 19.3831 24.5088C19.3938 24.5088 19.4046 24.5088 19.4154 24.5088C19.4261 24.5088 19.4369 24.5088 19.4476 24.5088C19.4584 24.5088 19.4692 24.5088 19.48 24.5088C19.4908 24.5088 19.5016 24.5088 19.5124 24.5088C19.5232 24.5088 19.534 24.5088 19.5448 24.5088C19.5556 24.5088 19.5664 24.5088 19.5773 24.5088C19.5881 24.5088 19.5989 24.5088 19.6098 24.5088C19.6206 24.5088 19.6314 24.5088 19.6423 24.5088C19.6532 24.5088 19.664 24.5088 19.6749 24.5088C19.6858 24.5088 19.6966 24.5088 19.7075 24.5088C19.7184 24.5088 19.7293 24.5088 19.7402 24.5088C19.7511 24.5088 19.762 24.5088 19.7729 24.5088C19.7838 24.5088 19.7947 24.5088 19.8056 24.5088C19.8165 24.5088 19.8274 24.5088 19.8384 24.5088C19.8493 24.5088 19.8602 24.5088 19.8712 24.5088C19.8821 24.5088 19.8931 24.5088 19.904 24.5088C19.915 24.5088 19.926 24.5088 19.9369 24.5088C19.9479 24.5088 19.9589 24.5088 19.9698 24.5088C19.9808 24.5088 19.9918 24.5088 20.0028 24.5088C20.0138 24.5088 20.0248 24.5088 20.0358 24.5088C20.0468 24.5088 20.0578 24.5088 20.0688 24.5088C20.0798 24.5088 20.0908 24.5088 20.1019 24.5088C20.1129 24.5088 20.1239 24.5088 20.1349 24.5088C20.146 24.5088 20.157 24.5088 20.1681 24.5088C20.1791 24.5088 20.1902 24.5088 20.2012 24.5088C20.2123 24.5088 20.2233 24.5088 20.2344 24.5088C20.2455 24.5088 20.2565 24.5088 20.2676 24.5088C20.2787 24.5088 20.2898 24.5088 20.3009 24.5088C20.3119 24.5088 20.323 24.5088 20.3341 24.5088C20.3452 24.5088 20.3563 24.5088 20.3674 24.5088C20.3785 24.5088 20.3897 24.5088 20.4008 24.5088C20.4119 24.5088 20.423 24.5088 20.4341 24.5088C20.4453 24.5088 20.4564 24.5088 20.4675 24.5088C20.4787 24.5088 20.4898 24.5088 20.5009 24.5088C20.5121 24.5088 20.5232 24.5088 20.5344 24.5088C20.5455 24.5088 20.5567 24.5088 20.5679 24.5088C20.579 24.5088 20.5902 24.5088 20.6014 24.5088C20.6125 24.5088 20.6237 24.5088 20.6349 24.5088C20.6461 24.5088 20.6573 24.5088 20.6684 24.5088C20.6796 24.5088 20.6908 24.5088 20.702 24.5088C20.7132 24.5088 20.7244 24.5088 20.7356 24.5088C20.7468 24.5088 20.758 24.5088 20.7692 24.5088C20.7805 24.5088 20.7917 24.5088 20.8029 24.5088C20.8141 24.5088 20.8253 24.5088 20.8366 24.5088C20.8478 24.5088 20.859 24.5088 20.8703 24.5088C20.8815 24.5088 20.8927 24.5088 20.904 24.5088C20.9152 24.5088 20.9265 24.5088 20.9377 24.5088C20.949 24.5088 20.9602 24.5088 20.9715 24.5088C20.9827 24.5088 20.994 24.5088 21.0053 24.5088C21.0165 24.5088 21.0278 24.5088 21.039 24.5088C21.0503 24.5088 21.0616 24.5088 21.0729 24.5088C21.0841 24.5088 21.0954 24.5088 21.1067 24.5088C21.118 24.5088 21.1293 24.5088 21.1406 24.5088C21.1519 24.5088 21.1631 24.5088 21.1744 24.5088C21.1857 24.5088 21.197 24.5088 21.2083 24.5088C21.2196 24.5088 21.2309 24.5088 21.2422 24.5088C21.2536 24.5088 21.2649 24.5088 21.2762 24.5088C21.2875 24.5088 21.2988 24.5088 21.3101 24.5088C21.3214 24.5088 21.3328 24.5088 21.3441 24.5088C21.3554 24.5088 21.3667 24.5088 21.3781 24.5088C21.3894 24.5088 21.4007 24.5088 21.412 24.5088C21.4234 24.5088 21.4347 24.5088 21.446 24.5088C21.4574 24.5088 21.4687 24.5088 21.4801 24.5088C21.4914 24.5088 21.5028 24.5088 21.5141 24.5088C21.5254 24.5088 21.5368 24.5088 21.5481 24.5088C21.5595 24.5088 21.5709 24.5088 21.5822 24.5088C21.5936 24.5088 21.6049 24.5088 21.6163 24.5088C21.6276 24.5088 21.639 24.5088 21.6504 24.5088C21.6617 24.5088 21.6731 24.5088 21.6845 24.5088C21.6958 24.5088 21.7072 24.5088 21.7186 24.5088C21.7299 24.5088 21.7413 24.5088 21.7527 24.5088C21.764 24.5088 21.7754 24.5088 21.7868 24.5088C21.7982 24.5088 21.8096 24.5088 21.8209 24.5088C21.8323 24.5088 21.8437 24.5088 21.8551 24.5088C21.8665 24.5088 21.8778 24.5088 21.8892 24.5088C21.9006 24.5088 21.912 24.5088 21.9234 24.5088C21.9348 24.5088 21.9462 24.5088 21.9576 24.5088C21.9689 24.5088 21.9803 24.5088 21.9917 24.5088C22.0031 24.5088 22.0145 24.5088 22.0259 24.5088C22.0373 24.5088 22.0487 24.5088 22.0601 24.5088C22.0715 24.5088 22.0829 24.5088 22.0943 24.5088C22.1057 24.5088 22.1171 24.5088 22.1285 24.5088C22.1399 24.5088 22.1513 24.5088 22.1627 24.5088C22.1741 24.5088 22.1855 24.5088 22.1969 24.5088C22.2083 24.5088 22.2197 24.5088 22.2311 24.5088C22.2425 24.5088 22.2539 24.5088 22.2653 24.5088C22.2767 24.5088 22.2881 24.5088 22.2995 24.5088C22.3109 24.5088 22.3223 24.5088 22.3337 24.5088C22.3452 24.5088 22.3566 24.5088 22.368 24.5088C22.3794 24.5088 22.3908 24.5088 22.4022 24.5088C22.4136 24.5088 22.425 24.5088 22.4364 24.5088C22.4478 24.5088 22.4592 24.5088 22.4706 24.5088C22.482 24.5088 22.4934 24.5088 22.5049 24.5088C22.5163 24.5088 22.5277 24.5088 22.5391 24.5088C22.5505 24.5088 22.5619 24.5088 22.5733 24.5088C22.5847 24.5088 22.5961 24.5088 22.6075 24.5088C22.6189 24.5088 22.6303 24.5088 22.6417 24.5088C22.6531 24.5088 22.6645 24.5088 22.676 24.5088C22.6874 24.5088 22.6988 24.5088 22.7102 24.5088C22.7216 24.5088 22.733 24.5088 22.7444 24.5088C22.7558 24.5088 22.7672 24.5088 22.7786 24.5088C22.79 24.5088 22.8014 24.5088 22.8128 24.5088C22.8242 24.5088 22.8356 24.5088 22.847 24.5088C22.8584 24.5088 22.8698 24.5088 22.8812 24.5088C22.8926 24.5088 22.904 24.5088 22.9153 24.5088C22.9267 24.5088 22.9381 24.5088 22.9495 24.5088C22.9609 24.5088 22.9723 24.5088 22.9837 24.5088C22.9951 24.5088 23.0065 24.5088 23.0179 24.5088C23.0293 24.5088 23.0406 24.5088 23.052 24.5088C23.0634 24.5088 23.0748 24.5088 23.0862 24.5088C23.0976 24.5088 23.1089 24.5088 23.1203 24.5088C23.1317 24.5088 23.1431 24.5088 23.1544 24.5088C23.1658 24.5088 23.1772 24.5088 23.1886 24.5088C23.1999 24.5088 23.2113 24.5088 23.2227 24.5088C23.234 24.5088 23.2454 24.5088 23.2568 24.5088C23.2681 24.5088 23.2795 24.5088 23.2909 24.5088C23.3022 24.5088 23.3136 24.5088 23.3249 24.5088C23.3363 24.5088 23.3477 24.5088 23.359 24.5088C23.3704 24.5088 23.3817 24.5088 23.3931 24.5088C23.4044 24.5088 23.4158 24.5088 23.4271 24.5088C23.4385 24.5088 23.4498 24.5088 23.4611 24.5088C23.4725 24.5088 23.4838 24.5088 23.4952 24.5088C23.5065 24.5088 23.5178 24.5088 23.5292 24.5088C23.5405 24.5088 23.5518 24.5088 23.5631 24.5088C23.5745 24.5088 23.5858 24.5088 23.5971 24.5088C23.6084 24.5088 23.6198 24.5088 23.6311 24.5088C23.6424 24.5088 23.6537 24.5088 23.665 24.5088C23.6763 24.5088 23.6876 24.5088 23.6989 24.5088C23.7102 24.5088 23.7215 24.5088 23.7328 24.5088C23.7441 24.5088 23.7554 24.5088 23.7667 24.5088C23.778 24.5088 23.7893 24.5088 23.8006 24.5088C23.8119 24.5088 23.8232 24.5088 23.8344 24.5088C23.8457 24.5088 23.857 24.5088 23.8683 24.5088C23.8796 24.5088 23.8908 24.5088 23.9021 24.5088C23.9134 24.5088 23.9246 24.5088 23.9359 24.5088C23.9471 24.5088 23.9584 24.5088 23.9697 24.5088C23.9809 24.5088 23.9922 24.5088 24.0034 24.5088C24.0147 24.5088 24.0259 24.5088 24.0371 24.5088C24.0484 24.5088 24.0596 24.5088 24.0709 24.5088C24.0821 24.5088 24.0933 24.5088 24.1045 24.5088C24.1158 24.5088 24.127 24.5088 24.1382 24.5088C24.1494 24.5088 24.1606 24.5088 24.1718 24.5088C24.1831 24.5088 24.1943 24.5088 24.2055 24.5088C24.2167 24.5088 24.2279 24.5088 24.2391 24.5088C24.2502 24.5088 24.2614 24.5088 24.2726 24.5088C24.2838 24.5088 24.295 24.5088 24.3062 24.5088C24.3173 24.5088 24.3285 24.5088 24.3397 24.5088C24.3509 24.5088 24.362 24.5088 24.3732 24.5088C24.3843 24.5088 24.3955 24.5088 24.4066 24.5088C24.4178 24.5088 24.4289 24.5088 24.4401 24.5088C24.4512 24.5088 24.4624 24.5088 24.4735 24.5088C24.4846 24.5088 24.4957 24.5088 24.5069 24.5088C24.518 24.5088 24.5291 24.5088 24.5402 24.5088C24.5513 24.5088 24.5624 24.5088 24.5736 24.5088C24.5847 24.5088 24.5958 24.5088 24.6068 24.5088C24.6179 24.5088 24.629 24.5088 24.6401 24.5088C24.6512 24.5088 24.6623 24.5088 24.6734 24.5088C24.6844 24.5088 24.6955 24.5088 24.7066 24.5088C24.7176 24.5088 24.7287 24.5088 24.7397 24.5088C24.7508 24.5088 24.7618 24.5088 24.7729 24.5088C24.7839 24.5088 24.795 24.5088 24.806 24.5088C24.817 24.5088 24.828 24.5088 24.8391 24.5088C24.8501 24.5088 24.8611 24.5088 24.8721 24.5088C24.8831 24.5088 24.8941 24.5088 24.9051 24.5088C24.9161 24.5088 24.9271 24.5088 24.9381 24.5088C24.9491 24.5088 24.9601 24.5088 24.971 24.5088C24.982 24.5088 24.993 24.5088 25.0039 24.5088C25.0149 24.5088 25.0259 24.5088 25.0368 24.5088C25.0478 24.5088 25.0587 24.5088 25.0697 24.5088C25.0806 24.5088 25.0915 24.5088 25.1025 24.5088C25.1134 24.5088 25.1243 24.5088 25.1352 24.5088C25.1461 24.5088 25.157 24.5088 25.1679 24.5088C25.1788 24.5088 25.1897 24.5088 25.2006 24.5088C25.2115 24.5088 25.2224 24.5088 25.2333 24.5088C25.2442 24.5088 25.255 24.5088 25.2659 24.5088C25.2768 24.5088 25.2876 24.5088 25.2985 24.5088C25.3093 24.5088 25.3202 24.5088 25.331 24.5088C25.3418 24.5088 25.3527 24.5088 25.3635 24.5088C25.3743 24.5088 25.3851 24.5088 25.3959 24.5088C25.4067 24.5088 25.4175 24.5088 25.4283 24.5088C25.4391 24.5088 25.4499 24.5088 25.4607 24.5088C25.4715 24.5088 25.4823 24.5088 25.493 24.5088C25.5038 24.5088 25.5146 24.5088 25.5253 24.5088C25.5361 24.5088 25.5468 24.5088 25.5576 24.5088C25.5683 24.5088 25.579 24.5088 25.5898 24.5088C25.6005 24.5088 25.6112 24.5088 25.6219 24.5088C25.6326 24.5088 25.6433 24.5088 25.654 24.5088C25.6647 24.5088 25.6754 24.5088 25.6861 24.5088C25.6968 24.5088 25.7074 24.5088 25.7181 24.5088C25.7288 24.5088 25.7394 24.5088 25.7501 24.5088C25.7607 24.5088 25.7714 24.5088 25.782 24.5088C25.7926 24.5088 25.8033 24.5088 25.8139 24.5088C25.8245 24.5088 25.8351 24.5088 25.8457 24.5088C25.8563 24.5088 25.8669 24.5088 25.8775 24.5088C25.8881 24.5088 25.8987 24.5088 25.9092 24.5088C25.9198 24.5088 25.9304 24.5088 25.9409 24.5088C25.9515 24.5088 25.962 24.5088 25.9726 24.5088C25.9831 24.5088 25.9936 24.5088 26.0042 24.5088C26.0147 24.5088 26.0252 24.5088 26.0357 24.5088C26.0462 24.5088 26.0567 24.5088 26.0672 24.5088C26.0777 24.5088 26.0881 24.5088 26.0986 24.5088C26.1091 24.5088 26.1195 24.5088 26.13 24.5088C26.1405 24.5088 26.1509 24.5088 26.1613 24.5088C26.1718 24.5088 26.1822 24.5088 26.1926 24.5088C26.203 24.5088 26.2134 24.5088 26.2238 24.5088C26.2342 24.5088 26.2446 24.5088 26.255 24.5088C26.2654 24.5088 26.2758 24.5088 26.2861 24.5088C26.2965 24.5088 26.3069 24.5088 26.3172 24.5088C26.3276 24.5088 26.3379 24.5088 26.3482 24.5088C26.3585 24.5088 26.3689 24.5088 26.3792 24.5088C26.3895 24.5088 26.3998 24.5088 26.4101 24.5088C26.4204 24.5088 26.4306 24.5088 26.4409 24.5088C26.4512 24.5088 26.4615 24.5088 26.4717 24.5088C26.482 24.5088 26.4922 24.5088 26.5024 24.5088C26.5127 24.5088 26.5229 24.5088 26.5331 24.5088C26.5433 24.5088 26.5535 24.5088 26.5637 24.5088C26.5739 24.5088 26.5841 24.5088 26.5943 24.5088C26.6045 24.5088 26.6146 24.5088 26.6248 24.5088C26.6349 24.5088 26.6451 24.5088 26.6552 24.5088C26.6654 24.5088 26.6755 24.5088 26.6856 24.5088C26.6957 24.5088 26.7058 24.5088 26.7159 24.5088C26.726 24.5088 26.7361 24.5088 26.7462 24.5088C26.7562 24.5088 26.7663 24.5088 26.7764 24.5088V24.0088V23.5088C26.7663 23.5088 26.7562 23.5088 26.7462 23.5088C26.7361 23.5088 26.726 23.5088 26.7159 23.5088C26.7058 23.5088 26.6957 23.5088 26.6856 23.5088C26.6755 23.5088 26.6654 23.5088 26.6552 23.5088C26.6451 23.5088 26.6349 23.5088 26.6248 23.5088C26.6146 23.5088 26.6045 23.5088 26.5943 23.5088C26.5841 23.5088 26.5739 23.5088 26.5637 23.5088C26.5535 23.5088 26.5433 23.5088 26.5331 23.5088C26.5229 23.5088 26.5127 23.5088 26.5024 23.5088C26.4922 23.5088 26.482 23.5088 26.4717 23.5088C26.4615 23.5088 26.4512 23.5088 26.4409 23.5088C26.4306 23.5088 26.4204 23.5088 26.4101 23.5088C26.3998 23.5088 26.3895 23.5088 26.3792 23.5088C26.3689 23.5088 26.3585 23.5088 26.3482 23.5088C26.3379 23.5088 26.3276 23.5088 26.3172 23.5088C26.3069 23.5088 26.2965 23.5088 26.2861 23.5088C26.2758 23.5088 26.2654 23.5088 26.255 23.5088C26.2446 23.5088 26.2342 23.5088 26.2238 23.5088C26.2134 23.5088 26.203 23.5088 26.1926 23.5088C26.1822 23.5088 26.1718 23.5088 26.1613 23.5088C26.1509 23.5088 26.1405 23.5088 26.13 23.5088C26.1195 23.5088 26.1091 23.5088 26.0986 23.5088C26.0881 23.5088 26.0777 23.5088 26.0672 23.5088C26.0567 23.5088 26.0462 23.5088 26.0357 23.5088C26.0252 23.5088 26.0147 23.5088 26.0042 23.5088C25.9936 23.5088 25.9831 23.5088 25.9726 23.5088C25.962 23.5088 25.9515 23.5088 25.9409 23.5088C25.9304 23.5088 25.9198 23.5088 25.9092 23.5088C25.8987 23.5088 25.8881 23.5088 25.8775 23.5088C25.8669 23.5088 25.8563 23.5088 25.8457 23.5088C25.8351 23.5088 25.8245 23.5088 25.8139 23.5088C25.8033 23.5088 25.7926 23.5088 25.782 23.5088C25.7714 23.5088 25.7607 23.5088 25.7501 23.5088C25.7394 23.5088 25.7288 23.5088 25.7181 23.5088C25.7074 23.5088 25.6968 23.5088 25.6861 23.5088C25.6754 23.5088 25.6647 23.5088 25.654 23.5088C25.6433 23.5088 25.6326 23.5088 25.6219 23.5088C25.6112 23.5088 25.6005 23.5088 25.5898 23.5088C25.579 23.5088 25.5683 23.5088 25.5576 23.5088C25.5468 23.5088 25.5361 23.5088 25.5253 23.5088C25.5146 23.5088 25.5038 23.5088 25.493 23.5088C25.4823 23.5088 25.4715 23.5088 25.4607 23.5088C25.4499 23.5088 25.4391 23.5088 25.4283 23.5088C25.4175 23.5088 25.4067 23.5088 25.3959 23.5088C25.3851 23.5088 25.3743 23.5088 25.3635 23.5088C25.3527 23.5088 25.3418 23.5088 25.331 23.5088C25.3202 23.5088 25.3093 23.5088 25.2985 23.5088C25.2876 23.5088 25.2768 23.5088 25.2659 23.5088C25.255 23.5088 25.2442 23.5088 25.2333 23.5088C25.2224 23.5088 25.2115 23.5088 25.2006 23.5088C25.1897 23.5088 25.1788 23.5088 25.1679 23.5088C25.157 23.5088 25.1461 23.5088 25.1352 23.5088C25.1243 23.5088 25.1134 23.5088 25.1025 23.5088C25.0915 23.5088 25.0806 23.5088 25.0697 23.5088C25.0587 23.5088 25.0478 23.5088 25.0368 23.5088C25.0259 23.5088 25.0149 23.5088 25.0039 23.5088C24.993 23.5088 24.982 23.5088 24.971 23.5088C24.9601 23.5088 24.9491 23.5088 24.9381 23.5088C24.9271 23.5088 24.9161 23.5088 24.9051 23.5088C24.8941 23.5088 24.8831 23.5088 24.8721 23.5088C24.8611 23.5088 24.8501 23.5088 24.8391 23.5088C24.828 23.5088 24.817 23.5088 24.806 23.5088C24.795 23.5088 24.7839 23.5088 24.7729 23.5088C24.7618 23.5088 24.7508 23.5088 24.7397 23.5088C24.7287 23.5088 24.7176 23.5088 24.7066 23.5088C24.6955 23.5088 24.6844 23.5088 24.6734 23.5088C24.6623 23.5088 24.6512 23.5088 24.6401 23.5088C24.629 23.5088 24.6179 23.5088 24.6068 23.5088C24.5958 23.5088 24.5847 23.5088 24.5736 23.5088C24.5624 23.5088 24.5513 23.5088 24.5402 23.5088C24.5291 23.5088 24.518 23.5088 24.5069 23.5088C24.4957 23.5088 24.4846 23.5088 24.4735 23.5088C24.4624 23.5088 24.4512 23.5088 24.4401 23.5088C24.4289 23.5088 24.4178 23.5088 24.4066 23.5088C24.3955 23.5088 24.3843 23.5088 24.3732 23.5088C24.362 23.5088 24.3509 23.5088 24.3397 23.5088C24.3285 23.5088 24.3173 23.5088 24.3062 23.5088C24.295 23.5088 24.2838 23.5088 24.2726 23.5088C24.2614 23.5088 24.2502 23.5088 24.2391 23.5088C24.2279 23.5088 24.2167 23.5088 24.2055 23.5088C24.1943 23.5088 24.1831 23.5088 24.1718 23.5088C24.1606 23.5088 24.1494 23.5088 24.1382 23.5088C24.127 23.5088 24.1158 23.5088 24.1045 23.5088C24.0933 23.5088 24.0821 23.5088 24.0709 23.5088C24.0596 23.5088 24.0484 23.5088 24.0371 23.5088C24.0259 23.5088 24.0147 23.5088 24.0034 23.5088C23.9922 23.5088 23.9809 23.5088 23.9697 23.5088C23.9584 23.5088 23.9471 23.5088 23.9359 23.5088C23.9246 23.5088 23.9134 23.5088 23.9021 23.5088C23.8908 23.5088 23.8796 23.5088 23.8683 23.5088C23.857 23.5088 23.8457 23.5088 23.8344 23.5088C23.8232 23.5088 23.8119 23.5088 23.8006 23.5088C23.7893 23.5088 23.778 23.5088 23.7667 23.5088C23.7554 23.5088 23.7441 23.5088 23.7328 23.5088C23.7215 23.5088 23.7102 23.5088 23.6989 23.5088C23.6876 23.5088 23.6763 23.5088 23.665 23.5088C23.6537 23.5088 23.6424 23.5088 23.6311 23.5088C23.6198 23.5088 23.6084 23.5088 23.5971 23.5088C23.5858 23.5088 23.5745 23.5088 23.5631 23.5088C23.5518 23.5088 23.5405 23.5088 23.5292 23.5088C23.5178 23.5088 23.5065 23.5088 23.4952 23.5088C23.4838 23.5088 23.4725 23.5088 23.4611 23.5088C23.4498 23.5088 23.4385 23.5088 23.4271 23.5088C23.4158 23.5088 23.4044 23.5088 23.3931 23.5088C23.3817 23.5088 23.3704 23.5088 23.359 23.5088C23.3477 23.5088 23.3363 23.5088 23.3249 23.5088C23.3136 23.5088 23.3022 23.5088 23.2909 23.5088C23.2795 23.5088 23.2681 23.5088 23.2568 23.5088C23.2454 23.5088 23.234 23.5088 23.2227 23.5088C23.2113 23.5088 23.1999 23.5088 23.1886 23.5088C23.1772 23.5088 23.1658 23.5088 23.1544 23.5088C23.1431 23.5088 23.1317 23.5088 23.1203 23.5088C23.1089 23.5088 23.0976 23.5088 23.0862 23.5088C23.0748 23.5088 23.0634 23.5088 23.052 23.5088C23.0406 23.5088 23.0293 23.5088 23.0179 23.5088C23.0065 23.5088 22.9951 23.5088 22.9837 23.5088C22.9723 23.5088 22.9609 23.5088 22.9495 23.5088C22.9381 23.5088 22.9267 23.5088 22.9153 23.5088C22.904 23.5088 22.8926 23.5088 22.8812 23.5088C22.8698 23.5088 22.8584 23.5088 22.847 23.5088C22.8356 23.5088 22.8242 23.5088 22.8128 23.5088C22.8014 23.5088 22.79 23.5088 22.7786 23.5088C22.7672 23.5088 22.7558 23.5088 22.7444 23.5088C22.733 23.5088 22.7216 23.5088 22.7102 23.5088C22.6988 23.5088 22.6874 23.5088 22.676 23.5088C22.6645 23.5088 22.6531 23.5088 22.6417 23.5088C22.6303 23.5088 22.6189 23.5088 22.6075 23.5088C22.5961 23.5088 22.5847 23.5088 22.5733 23.5088C22.5619 23.5088 22.5505 23.5088 22.5391 23.5088C22.5277 23.5088 22.5163 23.5088 22.5049 23.5088C22.4934 23.5088 22.482 23.5088 22.4706 23.5088C22.4592 23.5088 22.4478 23.5088 22.4364 23.5088C22.425 23.5088 22.4136 23.5088 22.4022 23.5088C22.3908 23.5088 22.3794 23.5088 22.368 23.5088C22.3566 23.5088 22.3452 23.5088 22.3337 23.5088C22.3223 23.5088 22.3109 23.5088 22.2995 23.5088C22.2881 23.5088 22.2767 23.5088 22.2653 23.5088C22.2539 23.5088 22.2425 23.5088 22.2311 23.5088C22.2197 23.5088 22.2083 23.5088 22.1969 23.5088C22.1855 23.5088 22.1741 23.5088 22.1627 23.5088C22.1513 23.5088 22.1399 23.5088 22.1285 23.5088C22.1171 23.5088 22.1057 23.5088 22.0943 23.5088C22.0829 23.5088 22.0715 23.5088 22.0601 23.5088C22.0487 23.5088 22.0373 23.5088 22.0259 23.5088C22.0145 23.5088 22.0031 23.5088 21.9917 23.5088C21.9803 23.5088 21.9689 23.5088 21.9576 23.5088C21.9462 23.5088 21.9348 23.5088 21.9234 23.5088C21.912 23.5088 21.9006 23.5088 21.8892 23.5088C21.8778 23.5088 21.8665 23.5088 21.8551 23.5088C21.8437 23.5088 21.8323 23.5088 21.8209 23.5088C21.8096 23.5088 21.7982 23.5088 21.7868 23.5088C21.7754 23.5088 21.764 23.5088 21.7527 23.5088C21.7413 23.5088 21.7299 23.5088 21.7186 23.5088C21.7072 23.5088 21.6958 23.5088 21.6845 23.5088C21.6731 23.5088 21.6617 23.5088 21.6504 23.5088C21.639 23.5088 21.6276 23.5088 21.6163 23.5088C21.6049 23.5088 21.5936 23.5088 21.5822 23.5088C21.5709 23.5088 21.5595 23.5088 21.5481 23.5088C21.5368 23.5088 21.5254 23.5088 21.5141 23.5088C21.5028 23.5088 21.4914 23.5088 21.4801 23.5088C21.4687 23.5088 21.4574 23.5088 21.446 23.5088C21.4347 23.5088 21.4234 23.5088 21.412 23.5088C21.4007 23.5088 21.3894 23.5088 21.3781 23.5088C21.3667 23.5088 21.3554 23.5088 21.3441 23.5088C21.3328 23.5088 21.3214 23.5088 21.3101 23.5088C21.2988 23.5088 21.2875 23.5088 21.2762 23.5088C21.2649 23.5088 21.2536 23.5088 21.2422 23.5088C21.2309 23.5088 21.2196 23.5088 21.2083 23.5088C21.197 23.5088 21.1857 23.5088 21.1744 23.5088C21.1631 23.5088 21.1519 23.5088 21.1406 23.5088C21.1293 23.5088 21.118 23.5088 21.1067 23.5088C21.0954 23.5088 21.0841 23.5088 21.0729 23.5088C21.0616 23.5088 21.0503 23.5088 21.039 23.5088C21.0278 23.5088 21.0165 23.5088 21.0053 23.5088C20.994 23.5088 20.9827 23.5088 20.9715 23.5088C20.9602 23.5088 20.949 23.5088 20.9377 23.5088C20.9265 23.5088 20.9152 23.5088 20.904 23.5088C20.8927 23.5088 20.8815 23.5088 20.8703 23.5088C20.859 23.5088 20.8478 23.5088 20.8366 23.5088C20.8253 23.5088 20.8141 23.5088 20.8029 23.5088C20.7917 23.5088 20.7805 23.5088 20.7692 23.5088C20.758 23.5088 20.7468 23.5088 20.7356 23.5088C20.7244 23.5088 20.7132 23.5088 20.702 23.5088C20.6908 23.5088 20.6796 23.5088 20.6684 23.5088C20.6573 23.5088 20.6461 23.5088 20.6349 23.5088C20.6237 23.5088 20.6125 23.5088 20.6014 23.5088C20.5902 23.5088 20.579 23.5088 20.5679 23.5088C20.5567 23.5088 20.5455 23.5088 20.5344 23.5088C20.5232 23.5088 20.5121 23.5088 20.5009 23.5088C20.4898 23.5088 20.4787 23.5088 20.4675 23.5088C20.4564 23.5088 20.4453 23.5088 20.4341 23.5088C20.423 23.5088 20.4119 23.5088 20.4008 23.5088C20.3897 23.5088 20.3785 23.5088 20.3674 23.5088C20.3563 23.5088 20.3452 23.5088 20.3341 23.5088C20.323 23.5088 20.3119 23.5088 20.3009 23.5088C20.2898 23.5088 20.2787 23.5088 20.2676 23.5088C20.2565 23.5088 20.2455 23.5088 20.2344 23.5088C20.2233 23.5088 20.2123 23.5088 20.2012 23.5088C20.1902 23.5088 20.1791 23.5088 20.1681 23.5088C20.157 23.5088 20.146 23.5088 20.1349 23.5088C20.1239 23.5088 20.1129 23.5088 20.1019 23.5088C20.0908 23.5088 20.0798 23.5088 20.0688 23.5088C20.0578 23.5088 20.0468 23.5088 20.0358 23.5088C20.0248 23.5088 20.0138 23.5088 20.0028 23.5088C19.9918 23.5088 19.9808 23.5088 19.9698 23.5088C19.9589 23.5088 19.9479 23.5088 19.9369 23.5088C19.926 23.5088 19.915 23.5088 19.904 23.5088C19.8931 23.5088 19.8821 23.5088 19.8712 23.5088C19.8602 23.5088 19.8493 23.5088 19.8384 23.5088C19.8274 23.5088 19.8165 23.5088 19.8056 23.5088C19.7947 23.5088 19.7838 23.5088 19.7729 23.5088C19.762 23.5088 19.7511 23.5088 19.7402 23.5088C19.7293 23.5088 19.7184 23.5088 19.7075 23.5088C19.6966 23.5088 19.6858 23.5088 19.6749 23.5088C19.664 23.5088 19.6532 23.5088 19.6423 23.5088C19.6314 23.5088 19.6206 23.5088 19.6098 23.5088C19.5989 23.5088 19.5881 23.5088 19.5773 23.5088C19.5664 23.5088 19.5556 23.5088 19.5448 23.5088C19.534 23.5088 19.5232 23.5088 19.5124 23.5088C19.5016 23.5088 19.4908 23.5088 19.48 23.5088C19.4692 23.5088 19.4584 23.5088 19.4476 23.5088C19.4369 23.5088 19.4261 23.5088 19.4154 23.5088C19.4046 23.5088 19.3938 23.5088 19.3831 23.5088C19.3724 23.5088 19.3616 23.5088 19.3509 23.5088C19.3402 23.5088 19.3294 23.5088 19.3187 23.5088C19.308 23.5088 19.2973 23.5088 19.2866 23.5088C19.2759 23.5088 19.2652 23.5088 19.2545 23.5088C19.2438 23.5088 19.2332 23.5088 19.2225 23.5088C19.2118 23.5088 19.2012 23.5088 19.1905 23.5088C19.1798 23.5088 19.1692 23.5088 19.1586 23.5088C19.1479 23.5088 19.1373 23.5088 19.1267 23.5088C19.116 23.5088 19.1054 23.5088 19.0948 23.5088C19.0842 23.5088 19.0736 23.5088 19.063 23.5088C19.0524 23.5088 19.0418 23.5088 19.0313 23.5088C19.0207 23.5088 19.0101 23.5088 18.9996 23.5088C18.989 23.5088 18.9785 23.5088 18.9679 23.5088C18.9574 23.5088 18.9468 23.5088 18.9363 23.5088C18.9258 23.5088 18.9153 23.5088 18.9048 23.5088C18.8942 23.5088 18.8837 23.5088 18.8733 23.5088C18.8628 23.5088 18.8523 23.5088 18.8418 23.5088C18.8313 23.5088 18.8209 23.5088 18.8104 23.5088C18.7999 23.5088 18.7895 23.5088 18.779 23.5088C18.7686 23.5088 18.7582 23.5088 18.7478 23.5088C18.7373 23.5088 18.7269 23.5088 18.7165 23.5088C18.7061 23.5088 18.6957 23.5088 18.6853 23.5088C18.6749 23.5088 18.6645 23.5088 18.6542 23.5088C18.6438 23.5088 18.6334 23.5088 18.6231 23.5088C18.6127 23.5088 18.6024 23.5088 18.5921 23.5088C18.5817 23.5088 18.5714 23.5088 18.5611 23.5088C18.5508 23.5088 18.5405 23.5088 18.5302 23.5088C18.5199 23.5088 18.5096 23.5088 18.4993 23.5088C18.489 23.5088 18.4788 23.5088 18.4685 23.5088C18.4582 23.5088 18.448 23.5088 18.4378 23.5088C18.4275 23.5088 18.4173 23.5088 18.4071 23.5088C18.3968 23.5088 18.3866 23.5088 18.3764 23.5088C18.3662 23.5088 18.356 23.5088 18.3459 23.5088C18.3357 23.5088 18.3255 23.5088 18.3153 23.5088C18.3052 23.5088 18.295 23.5088 18.2849 23.5088C18.2747 23.5088 18.2646 23.5088 18.2545 23.5088C18.2444 23.5088 18.2343 23.5088 18.2242 23.5088C18.2141 23.5088 18.204 23.5088 18.1939 23.5088C18.1838 23.5088 18.1737 23.5088 18.1637 23.5088C18.1536 23.5088 18.1436 23.5088 18.1335 23.5088C18.1235 23.5088 18.1134 23.5088 18.1034 23.5088C18.0934 23.5088 18.0834 23.5088 18.0734 23.5088C18.0634 23.5088 18.0534 23.5088 18.0434 23.5088C18.0335 23.5088 18.0235 23.5088 18.0135 23.5088C18.0036 23.5088 17.9936 23.5088 17.9837 23.5088C17.9738 23.5088 17.9638 23.5088 17.9539 23.5088C17.944 23.5088 17.9341 23.5088 17.9242 23.5088C17.9143 23.5088 17.9045 23.5088 17.8946 23.5088C17.8847 23.5088 17.8749 23.5088 17.865 23.5088C17.8552 23.5088 17.8453 23.5088 17.8355 23.5088C17.8257 23.5088 17.8159 23.5088 17.8061 23.5088C17.7963 23.5088 17.7865 23.5088 17.7767 23.5088C17.7669 23.5088 17.7571 23.5088 17.7474 23.5088C17.7376 23.5088 17.7279 23.5088 17.7181 23.5088C17.7084 23.5088 17.6987 23.5088 17.689 23.5088C17.6793 23.5088 17.6696 23.5088 17.6599 23.5088C17.6502 23.5088 17.6405 23.5088 17.6308 23.5088C17.6212 23.5088 17.6115 23.5088 17.6019 23.5088C17.5922 23.5088 17.5826 23.5088 17.573 23.5088C17.5634 23.5088 17.5538 23.5088 17.5442 23.5088C17.5346 23.5088 17.525 23.5088 17.5154 23.5088C17.5059 23.5088 17.4963 23.5088 17.4868 23.5088C17.4772 23.5088 17.4677 23.5088 17.4582 23.5088C17.4486 23.5088 17.4391 23.5088 17.4296 23.5088C17.4201 23.5088 17.4106 23.5088 17.4012 23.5088C17.3917 23.5088 17.3822 23.5088 17.3728 23.5088C17.3633 23.5088 17.3539 23.5088 17.3445 23.5088C17.3351 23.5088 17.3256 23.5088 17.3162 23.5088C17.3068 23.5088 17.2975 23.5088 17.2881 23.5088C17.2787 23.5088 17.2694 23.5088 17.26 23.5088C17.2507 23.5088 17.2413 23.5088 17.232 23.5088C17.2227 23.5088 17.2134 23.5088 17.2041 23.5088C17.1948 23.5088 17.1855 23.5088 17.1762 23.5088C17.167 23.5088 17.1577 23.5088 17.1485 23.5088C17.1392 23.5088 17.13 23.5088 17.1208 23.5088C17.1115 23.5088 17.1023 23.5088 17.0932 23.5088C17.084 23.5088 17.0748 23.5088 17.0656 23.5088C17.0564 23.5088 17.0473 23.5088 17.0382 23.5088C17.029 23.5088 17.0199 23.5088 17.0108 23.5088C17.0017 23.5088 16.9926 23.5088 16.9835 23.5088C16.9744 23.5088 16.9653 23.5088 16.9563 23.5088C16.9472 23.5088 16.9382 23.5088 16.9291 23.5088C16.9201 23.5088 16.9111 23.5088 16.9021 23.5088C16.8931 23.5088 16.8841 23.5088 16.8751 23.5088C16.8661 23.5088 16.8572 23.5088 16.8482 23.5088C16.8393 23.5088 16.8304 23.5088 16.8214 23.5088C16.8125 23.5088 16.8036 23.5088 16.7947 23.5088C16.7858 23.5088 16.7769 23.5088 16.7681 23.5088C16.7592 23.5088 16.7504 23.5088 16.7415 23.5088C16.7327 23.5088 16.7239 23.5088 16.7151 23.5088C16.7063 23.5088 16.6975 23.5088 16.6887 23.5088C16.6799 23.5088 16.6712 23.5088 16.6624 23.5088C16.6537 23.5088 16.6449 23.5088 16.6362 23.5088C16.6275 23.5088 16.6188 23.5088 16.6101 23.5088C16.6014 23.5088 16.5927 23.5088 16.5841 23.5088C16.5754 23.5088 16.5667 23.5088 16.5581 23.5088C16.5495 23.5088 16.5409 23.5088 16.5323 23.5088C16.5237 23.5088 16.5151 23.5088 16.5065 23.5088C16.4979 23.5088 16.4894 23.5088 16.4808 23.5088C16.4723 23.5088 16.4638 23.5088 16.4552 23.5088C16.4467 23.5088 16.4382 23.5088 16.4297 23.5088C16.4213 23.5088 16.4128 23.5088 16.4043 23.5088C16.3959 23.5088 16.3875 23.5088 16.379 23.5088C16.3706 23.5088 16.3622 23.5088 16.3538 23.5088C16.3454 23.5088 16.3371 23.5088 16.3287 23.5088C16.3203 23.5088 16.312 23.5088 16.3037 23.5088C16.2953 23.5088 16.287 23.5088 16.2787 23.5088C16.2704 23.5088 16.2621 23.5088 16.2539 23.5088C16.2456 23.5088 16.2374 23.5088 16.2291 23.5088C16.2209 23.5088 16.2127 23.5088 16.2045 23.5088C16.1963 23.5088 16.1881 23.5088 16.1799 23.5088C16.1717 23.5088 16.1636 23.5088 16.1554 23.5088C16.1473 23.5088 16.1392 23.5088 16.1311 23.5088C16.123 23.5088 16.1149 23.5088 16.1068 23.5088C16.0987 23.5088 16.0907 23.5088 16.0826 23.5088C16.0746 23.5088 16.0665 23.5088 16.0585 23.5088C16.0505 23.5088 16.0425 23.5088 16.0346 23.5088C16.0266 23.5088 16.0186 23.5088 16.0107 23.5088C16.0027 23.5088 15.9948 23.5088 15.9869 23.5088C15.979 23.5088 15.9711 23.5088 15.9632 23.5088C15.9553 23.5088 15.9475 23.5088 15.9396 23.5088C15.9318 23.5088 15.924 23.5088 15.9161 23.5088C15.9083 23.5088 15.9005 23.5088 15.8928 23.5088C15.885 23.5088 15.8772 23.5088 15.8695 23.5088C15.8617 23.5088 15.854 23.5088 15.8463 23.5088C15.8386 23.5088 15.8309 23.5088 15.8232 23.5088C15.8155 23.5088 15.8079 23.5088 15.8002 23.5088C15.7926 23.5088 15.785 23.5088 15.7774 23.5088C15.7698 23.5088 15.7622 23.5088 15.7546 23.5088C15.747 23.5088 15.7395 23.5088 15.7319 23.5088C15.7244 23.5088 15.7169 23.5088 15.7094 23.5088C15.7019 23.5088 15.6944 23.5088 15.6869 23.5088C15.6795 23.5088 15.672 23.5088 15.6646 23.5088C15.6572 23.5088 15.6497 23.5088 15.6424 23.5088C15.635 23.5088 15.6276 23.5088 15.6202 23.5088C15.6129 23.5088 15.6055 23.5088 15.5982 23.5088C15.5909 23.5088 15.5836 23.5088 15.5763 23.5088C15.569 23.5088 15.5617 23.5088 15.5545 23.5088C15.5472 23.5088 15.54 23.5088 15.5328 23.5088C15.5255 23.5088 15.5183 23.5088 15.5112 23.5088C15.504 23.5088 15.4968 23.5088 15.4897 23.5088C15.4825 23.5088 15.4754 23.5088 15.4683 23.5088C15.4612 23.5088 15.4541 23.5088 15.447 23.5088C15.44 23.5088 15.4329 23.5088 15.4259 23.5088C15.4188 23.5088 15.4118 23.5088 15.4048 23.5088C15.3978 23.5088 15.3909 23.5088 15.3839 23.5088C15.3769 23.5088 15.37 23.5088 15.3631 23.5088C15.3562 23.5088 15.3493 23.5088 15.3424 23.5088C15.3355 23.5088 15.3286 23.5088 15.3218 23.5088C15.3149 23.5088 15.3081 23.5088 15.3013 23.5088C15.2945 23.5088 15.2877 23.5088 15.2809 23.5088C15.2742 23.5088 15.2674 23.5088 15.2607 23.5088C15.254 23.5088 15.2473 23.5088 15.2406 23.5088C15.2339 23.5088 15.2272 23.5088 15.2205 23.5088C15.2139 23.5088 15.2073 23.5088 15.2006 23.5088C15.194 23.5088 15.1874 23.5088 15.1809 23.5088C15.1743 23.5088 15.1677 23.5088 15.1612 23.5088C15.1546 23.5088 15.1481 23.5088 15.1416 23.5088C15.1351 23.5088 15.1287 23.5088 15.1222 23.5088C15.1157 23.5088 15.1093 23.5088 15.1029 23.5088C15.0965 23.5088 15.0901 23.5088 15.0837 23.5088C15.0773 23.5088 15.0709 23.5088 15.0646 23.5088C15.0583 23.5088 15.0519 23.5088 15.0456 23.5088C15.0393 23.5088 15.0331 23.5088 15.0268 23.5088C15.0205 23.5088 15.0143 23.5088 15.0081 23.5088C15.0019 23.5088 14.9957 23.5088 14.9895 23.5088C14.9833 23.5088 14.9772 23.5088 14.971 23.5088C14.9649 23.5088 14.9588 23.5088 14.9527 23.5088C14.9466 23.5088 14.9405 23.5088 14.9344 23.5088C14.9284 23.5088 14.9223 23.5088 14.9163 23.5088C14.9103 23.5088 14.9043 23.5088 14.8983 23.5088C14.8924 23.5088 14.8864 23.5088 14.8805 23.5088C14.8745 23.5088 14.8686 23.5088 14.8627 23.5088C14.8569 23.5088 14.851 23.5088 14.8451 23.5088C14.8393 23.5088 14.8335 23.5088 14.8277 23.5088C14.8218 23.5088 14.8161 23.5088 14.8103 23.5088C14.8045 23.5088 14.7988 23.5088 14.7931 23.5088C14.7873 23.5088 14.7816 23.5088 14.776 23.5088C14.7703 23.5088 14.7646 23.5088 14.759 23.5088C14.7533 23.5088 14.7477 23.5088 14.7421 23.5088C14.7365 23.5088 14.731 23.5088 14.7254 23.5088C14.7199 23.5088 14.7143 23.5088 14.7088 23.5088C14.7033 23.5088 14.6978 23.5088 14.6924 23.5088C14.6869 23.5088 14.6814 23.5088 14.676 23.5088C14.6706 23.5088 14.6652 23.5088 14.6598 23.5088C14.6544 23.5088 14.6491 23.5088 14.6437 23.5088C14.6384 23.5088 14.6331 23.5088 14.6278 23.5088C14.6225 23.5088 14.6172 23.5088 14.612 23.5088C14.6067 23.5088 14.6015 23.5088 14.5963 23.5088C14.5911 23.5088 14.5859 23.5088 14.5808 23.5088C14.5756 23.5088 14.5705 23.5088 14.5653 23.5088C14.5602 23.5088 14.5551 23.5088 14.5501 23.5088C14.545 23.5088 14.5399 23.5088 14.5349 23.5088C14.5299 23.5088 14.5249 23.5088 14.5199 23.5088C14.5149 23.5088 14.51 23.5088 14.505 23.5088C14.5001 23.5088 14.4952 23.5088 14.4903 23.5088C14.4854 23.5088 14.4805 23.5088 14.4757 23.5088C14.4708 23.5088 14.466 23.5088 14.4612 23.5088C14.4564 23.5088 14.4516 23.5088 14.4469 23.5088C14.4421 23.5088 14.4374 23.5088 14.4327 23.5088C14.428 23.5088 14.4233 23.5088 14.4186 23.5088C14.414 23.5088 14.4093 23.5088 14.4047 23.5088C14.4001 23.5088 14.3955 23.5088 14.3909 23.5088C14.3864 23.5088 14.3818 23.5088 14.3773 23.5088C14.3728 23.5088 14.3683 23.5088 14.3638 23.5088C14.3593 23.5088 14.3549 23.5088 14.3504 23.5088C14.346 23.5088 14.3416 23.5088 14.3372 23.5088C14.3328 23.5088 14.3285 23.5088 14.3241 23.5088C14.3198 23.5088 14.3155 23.5088 14.3112 23.5088C14.3069 23.5088 14.3026 23.5088 14.2984 23.5088C14.2942 23.5088 14.2899 23.5088 14.2857 23.5088C14.2816 23.5088 14.2774 23.5088 14.2732 23.5088C14.2691 23.5088 14.265 23.5088 14.2609 23.5088C14.2568 23.5088 14.2527 23.5088 14.2486 23.5088C14.2446 23.5088 14.2406 23.5088 14.2366 23.5088C14.2326 23.5088 14.2286 23.5088 14.2246 23.5088C14.2207 23.5088 14.2167 23.5088 14.2128 23.5088C14.2089 23.5088 14.2051 23.5088 14.2012 23.5088C14.1973 23.5088 14.1935 23.5088 14.1897 23.5088C14.1859 23.5088 14.1821 23.5088 14.1783 23.5088C14.1746 23.5088 14.1709 23.5088 14.1671 23.5088C14.1634 23.5088 14.1597 23.5088 14.1561 23.5088C14.1524 23.5088 14.1488 23.5088 14.1452 23.5088C14.1416 23.5088 14.138 23.5088 14.1344 23.5088C14.1309 23.5088 14.1273 23.5088 14.1238 23.5088C14.1203 23.5088 14.1168 23.5088 14.1134 23.5088C14.1099 23.5088 14.1065 23.5088 14.103 23.5088C14.0996 23.5088 14.0962 23.5088 14.0929 23.5088C14.0895 23.5088 14.0862 23.5088 14.0829 23.5088C14.0796 23.5088 14.0763 23.5088 14.073 23.5088C14.0698 23.5088 14.0665 23.5088 14.0633 23.5088C14.0601 23.5088 14.0569 23.5088 14.0538 23.5088C14.0506 23.5088 14.0475 23.5088 14.0444 23.5088C14.0412 23.5088 14.0382 23.5088 14.0351 23.5088C14.032 23.5088 14.029 23.5088 14.026 23.5088C14.023 23.5088 14.02 23.5088 14.0171 23.5088C14.0141 23.5088 14.0112 23.5088 14.0083 23.5088C14.0054 23.5088 14.0025 23.5088 13.9997 23.5088C13.9968 23.5088 13.994 23.5088 13.9912 23.5088C13.9884 23.5088 13.9856 23.5088 13.9829 23.5088C13.9801 23.5088 13.9774 23.5088 13.9747 23.5088C13.972 23.5088 13.9693 23.5088 13.9667 23.5088C13.9641 23.5088 13.9614 23.5088 13.9589 23.5088C13.9563 23.5088 13.9537 23.5088 13.9512 23.5088C13.9486 23.5088 13.9461 23.5088 13.9436 23.5088C13.9412 23.5088 13.9387 23.5088 13.9363 23.5088C13.9338 23.5088 13.9314 23.5088 13.9291 23.5088C13.9267 23.5088 13.9243 23.5088 13.922 23.5088C13.9197 23.5088 13.9174 23.5088 13.9151 23.5088C13.9128 23.5088 13.9106 23.5088 13.9084 23.5088C13.9062 23.5088 13.904 23.5088 13.9018 23.5088C13.8996 23.5088 13.8975 23.5088 13.8954 23.5088C13.8933 23.5088 13.8912 23.5088 13.8892 23.5088C13.8871 23.5088 13.8851 23.5088 13.8831 23.5088C13.8811 23.5088 13.8791 23.5088 13.8772 23.5088C13.8752 23.5088 13.8733 23.5088 13.8714 23.5088C13.8695 23.5088 13.8676 23.5088 13.8658 23.5088C13.864 23.5088 13.8622 23.5088 13.8604 23.5088C13.8586 23.5088 13.8568 23.5088 13.8551 23.5088C13.8534 23.5088 13.8517 23.5088 13.85 23.5088C13.8483 23.5088 13.8467 23.5088 13.8451 23.5088C13.8435 23.5088 13.8419 23.5088 13.8403 23.5088C13.8388 23.5088 13.8372 23.5088 13.8357 23.5088C13.8342 23.5088 13.8327 23.5088 13.8313 23.5088C13.8299 23.5088 13.8284 23.5088 13.827 23.5088C13.8256 23.5088 13.8243 23.5088 13.8229 23.5088C13.8216 23.5088 13.8203 23.5088 13.819 23.5088C13.8177 23.5088 13.8165 23.5088 13.8153 23.5088C13.814 23.5088 13.8128 23.5088 13.8117 23.5088C13.8105 23.5088 13.8094 23.5088 13.8083 23.5088C13.8072 23.5088 13.8061 23.5088 13.805 23.5088C13.804 23.5088 13.8029 23.5088 13.802 23.5088C13.801 23.5088 13.8 23.5088 13.799 23.5088C13.7981 23.5088 13.7972 23.5088 13.7963 23.5088C13.7954 23.5088 13.7946 23.5088 13.7938 23.5088C13.7929 23.5088 13.7921 23.5088 13.7914 23.5088C13.7906 23.5088 13.7899 23.5088 13.7892 23.5088C13.7885 23.5088 13.7878 23.5088 13.7871 23.5088C13.7865 23.5088 13.7859 23.5088 13.7853 23.5088C13.7847 23.5088 13.7841 23.5088 13.7836 23.5088C13.7831 23.5088 13.7826 23.5088 13.7821 23.5088C13.7816 23.5088 13.7812 23.5088 13.7807 23.5088C13.7803 23.5088 13.7799 23.5088 13.7796 23.5088C13.7792 23.5088 13.7789 23.5088 13.7786 23.5088C13.7783 23.5088 13.778 23.5088 13.7778 23.5088C13.7776 23.5088 13.7774 23.5088 13.7772 23.5088C13.777 23.5088 13.7768 23.5088 13.7767 23.5088C13.7766 23.5088 13.7765 23.5088 13.7765 23.5088C13.7764 23.5088 13.7764 23.5088 13.7764 24.0088ZM26.7764 24.0088H27.2764V16.0088H26.7764H26.2764V24.0088H26.7764Z" fill="#21272A"/>
</svg>
