<svg width="33" height="36" viewBox="0 0 33 36" fill="none" xmlns="http://www.w3.org/2000/svg">
<path d="M23.8975 4.50586C26.4414 4.63174 28.4646 6.68239 28.4648 9.19336L28.458 9.43555C28.3289 11.9155 26.2256 13.8876 23.6494 13.8877L23.4014 13.8818C22.4964 13.8371 21.6577 13.548 20.9521 13.082L14.7861 17.8604L20.7949 23.0264C21.5938 22.4522 22.5808 22.1123 23.6494 22.1123L23.8975 22.1182C26.4414 22.244 28.4646 24.2947 28.4648 26.8057L28.458 27.0479C28.3289 29.5278 26.2256 31.4999 23.6494 31.5L23.4014 31.4941C20.9393 31.3724 18.9647 29.4478 18.8398 27.0479L18.834 26.8057C18.834 26.3408 18.904 25.8918 19.0332 25.4678L13.124 20.3877C12.2453 21.5231 10.8518 22.2588 9.28027 22.2588L9.03223 22.2529C6.57019 22.1312 4.59562 20.2065 4.4707 17.8066L4.46484 17.5645C4.4651 14.9724 6.62101 12.8711 9.28027 12.8711L9.52832 12.877C11.172 12.9583 12.5977 13.8434 13.4014 15.1367L19.0957 10.7256C18.9514 10.3181 18.8632 9.88514 18.8398 9.43555L18.834 9.19336C18.8342 6.60126 20.9901 4.5 23.6494 4.5L23.8975 4.50586ZM23.6494 25.1123C22.5743 25.1123 21.8342 25.9422 21.834 26.8057C21.834 27.6693 22.5741 28.5 23.6494 28.5C24.7247 28.4999 25.4648 27.6692 25.4648 26.8057C25.4646 25.9422 24.7245 25.1124 23.6494 25.1123ZM9.28027 15.8711C8.20511 15.8711 7.46511 16.701 7.46484 17.5645C7.46488 18.4281 8.20494 19.2588 9.28027 19.2588C10.3555 19.2587 11.0957 18.428 11.0957 17.5645C11.0954 16.701 10.3554 15.8712 9.28027 15.8711ZM23.6494 7.5C22.5743 7.5 21.8342 8.3299 21.834 9.19336C21.834 10.057 22.5741 10.8877 23.6494 10.8877C24.7247 10.8876 25.4648 10.0569 25.4648 9.19336C25.4646 8.32993 24.7245 7.50006 23.6494 7.5Z" fill="#F2F4F8"/>
</svg>
