<svg width="25" height="25" viewBox="0 0 25 25" fill="none" xmlns="http://www.w3.org/2000/svg">
<path fill-rule="evenodd" clip-rule="evenodd" d="M6.71967 6.71967C7.01256 6.42678 7.48744 6.42678 7.78033 6.71967L18.2803 17.2197C18.5732 17.5126 18.5732 17.9874 18.2803 18.2803C17.9874 18.5732 17.5126 18.5732 17.2197 18.2803L6.71967 7.78033C6.42678 7.48744 6.42678 7.01256 6.71967 6.71967Z" fill="#F2F4F8"/>
<path fill-rule="evenodd" clip-rule="evenodd" d="M18.2803 6.71967C18.5732 7.01256 18.5732 7.48744 18.2803 7.78033L7.78033 18.2803C7.48744 18.5732 7.01256 18.5732 6.71967 18.2803C6.42678 17.9874 6.42678 17.5126 6.71967 17.2197L17.2197 6.71967C17.5126 6.42678 17.9874 6.42678 18.2803 6.71967Z" fill="#F2F4F8"/>
</svg>
