<svg width="33" height="33" viewBox="0 0 33 33" fill="none" xmlns="http://www.w3.org/2000/svg">
<path d="M22.9697 27.2956L17.9564 28.5489C17.7449 28.6019 17.5277 28.6288 17.3097 28.6289H11.9524C11.4571 28.6289 10.9715 28.4909 10.5502 28.2305C10.1289 27.97 9.78846 27.5973 9.56705 27.1542L4.90038 17.8209C4.69723 17.4143 4.60135 16.9626 4.62186 16.5086C4.64236 16.0546 4.77857 15.6133 5.01755 15.2267C5.25653 14.8401 5.59035 14.521 5.98732 14.2997C6.38428 14.0784 6.83123 13.9623 7.28572 13.9622H13.6377H16.3044M22.9697 27.2956L22.971 15.2956L18.4484 8.51157C17.919 7.71824 17.6377 6.78757 17.6377 5.83424C17.6377 5.1689 17.0977 4.62891 16.431 4.62891H16.303C15.5958 4.62891 14.9175 4.90986 14.4174 5.40995C13.9173 5.91005 13.6364 6.58833 13.6364 7.29557V13.9622M22.9697 27.2956H25.6377C26.345 27.2956 27.0232 27.0146 27.5233 26.5145C28.0234 26.0144 28.3044 25.3362 28.3044 24.6289V16.6289C28.3044 15.9217 28.0234 15.2434 27.5233 14.7433C27.0232 14.2432 26.345 13.9622 25.6377 13.9622H22.3044" stroke="#F2F4F8" stroke-width="3" stroke-linecap="round" stroke-linejoin="round"/>
</svg>
