<svg width="33" height="32" viewBox="0 0 33 32" fill="none" xmlns="http://www.w3.org/2000/svg">
<mask id="path-1-inside-1_36_4547" fill="white">
<path d="M15.5 4.23242C21.8513 4.23242 27 9.38115 27 15.7324C27 17.2727 26.6949 18.7414 26.1455 20.084L28.4648 27.7676L21.5146 25.5332C19.7645 26.6096 17.7054 27.2324 15.5 27.2324C9.14873 27.2324 4 22.0837 4 15.7324C4 9.38115 9.14873 4.23242 15.5 4.23242Z"/>
</mask>
<path d="M26.1455 20.084L23.369 18.9478L22.9661 19.9324L23.2735 20.9509L26.1455 20.084ZM28.4648 27.7676L27.5467 30.6236L32.9888 32.3732L31.3369 26.9006L28.4648 27.7676ZM21.5146 25.5332L22.4328 22.6772L21.1188 22.2547L19.9431 22.9778L21.5146 25.5332ZM15.5 4.23242V7.23242C20.1944 7.23242 24 11.038 24 15.7324H27H30C30 7.72429 23.5081 1.23242 15.5 1.23242V4.23242ZM27 15.7324H24C24 16.8732 23.7746 17.9565 23.369 18.9478L26.1455 20.084L28.922 21.2201C29.6152 19.5263 30 17.6723 30 15.7324H27ZM26.1455 20.084L23.2735 20.9509L25.5928 28.6345L28.4648 27.7676L31.3369 26.9006L29.0175 19.2171L26.1455 20.084ZM28.4648 27.7676L29.383 24.9115L22.4328 22.6772L21.5146 25.5332L20.5965 28.3892L27.5467 30.6236L28.4648 27.7676ZM21.5146 25.5332L19.9431 22.9778C18.65 23.773 17.1325 24.2324 15.5 24.2324V27.2324V30.2324C18.2783 30.2324 20.879 29.4461 23.0862 28.0886L21.5146 25.5332ZM15.5 27.2324V24.2324C10.8056 24.2324 7 20.4268 7 15.7324H4H1C1 23.7406 7.49187 30.2324 15.5 30.2324V27.2324ZM4 15.7324H7C7 11.038 10.8056 7.23242 15.5 7.23242V4.23242V1.23242C7.49187 1.23242 1 7.72429 1 15.7324H4Z" fill="#F2F4F8" mask="url(#path-1-inside-1_36_4547)"/>
</svg>
