<svg width="33" height="33" viewBox="0 0 33 33" fill="none" xmlns="http://www.w3.org/2000/svg">
<path d="M22.9697 5.96224L17.9564 4.70891C17.7449 4.65591 17.5277 4.62904 17.3097 4.62891H11.9524C11.4571 4.62892 10.9715 4.7669 10.5502 5.02736C10.1289 5.28783 9.78846 5.66049 9.56705 6.10357L4.90038 15.4369C4.69723 15.8435 4.60135 16.2952 4.62186 16.7492C4.64236 17.2032 4.77857 17.6445 5.01755 18.0311C5.25653 18.4177 5.59035 18.7368 5.98732 18.9581C6.38428 19.1794 6.83123 19.2956 7.28572 19.2956H13.6377H16.3044M22.9697 5.96224L22.971 17.9622L18.4484 24.7462C17.919 25.5396 17.6377 26.4702 17.6377 27.4236C17.6377 28.0889 17.0977 28.6289 16.431 28.6289H16.303C15.5958 28.6289 14.9175 28.348 14.4174 27.8479C13.9173 27.3478 13.6364 26.6695 13.6364 25.9622V19.2956M22.9697 5.96224H25.6377C26.345 5.96224 27.0232 6.24319 27.5233 6.74329C28.0234 7.24339 28.3044 7.92166 28.3044 8.62891V16.6289C28.3044 17.3362 28.0234 18.0144 27.5233 18.5145C27.0232 19.0146 26.345 19.2956 25.6377 19.2956H22.3044" stroke="#F2F4F8" stroke-width="3" stroke-linecap="round" stroke-linejoin="round"/>
</svg>
