<svg width="35" height="35" viewBox="0 0 35 35" fill="none" xmlns="http://www.w3.org/2000/svg">
<rect x="1.56836" y="1.89111" width="1.63068" height="4.13125" fill="#F2F4F8"/>
<rect x="10.8262" y="29.7017" width="1.63068" height="4.13125" fill="#F2F4F8"/>
<path d="M23.8237 2.86621L15.2129 33.4974" stroke="#F2F4F8" stroke-width="4.21692"/>
<path d="M31.769 2.86621L23.1582 33.4974" stroke="#F2F4F8" stroke-width="4.21692"/>
<rect x="2.74908" y="2.54791" width="30.2756" height="30.2756" stroke="#F2F4F8" stroke-width="3.72081"/>
<path d="M14.0859 1.63867V33.8328" stroke="#F2F4F8" stroke-width="4.21692"/>
<path d="M14.1582 7.03808L13.1035 5.99805C12.5935 5.49558 11.763 4.94605 10.8262 4.52246C9.88721 4.09791 8.90611 3.83008 8.10156 3.83008C6.75908 3.8301 5.81893 4.29442 5.17969 5.18066C4.50463 6.11658 4.13675 7.40165 4.13672 9.09277C4.13672 10.9139 4.42489 12.2083 4.92676 13.0498C5.43255 13.8978 6.40984 14.7791 7.94336 15.6709L9.0752 16.209L9.09375 16.2178L9.1123 16.2275C10.8062 17.1762 12.0892 18.2766 12.915 19.5449C13.792 20.8302 14.1836 22.6956 14.1836 25.043C14.1836 27.6526 13.6819 29.7692 12.6035 31.3213C11.5034 32.9328 9.8008 33.707 7.62012 33.707C5.42256 33.7069 3.52241 32.9396 1.95312 31.417L1.76465 31.2344L1.76465 28.4873L2.80762 29.4619C4.20871 30.7703 5.79573 31.4091 7.5918 31.4092C9.17794 31.4092 10.2768 30.893 11.0029 29.9316C11.7538 28.9374 12.1797 27.3725 12.1797 25.1348C12.1797 23.1997 11.8375 21.8256 11.2373 20.9297L11.2334 20.9229C10.628 19.9943 9.66542 19.1701 8.2998 18.4697L8.28711 18.4639L7.09863 17.8203L7.09668 17.8184C5.35842 16.8667 4.06924 15.7577 3.2959 14.4678L3.29297 14.4619C2.53061 13.1568 2.05859 11.473 2.05859 9.26758C2.05863 7.07655 2.64179 5.17843 3.63184 3.77148C4.68271 2.27425 6.21093 1.53225 8.12988 1.53223C9.15234 1.53223 10.3018 1.9144 11.3174 2.40723C12.3419 2.90443 13.3018 3.5498 13.9561 4.14746L14.1582 4.33203L14.1582 7.03808Z" fill="#F2F4F8" stroke="#F2F4F8" stroke-width="1.24027"/>
</svg>
